<?xml version="1.0" encoding="UTF-8"?>
<svg width="40px" height="26px" viewBox="0 0 40 26" version="1.1" xmlns="http://www.w3.org/2000/svg" xmlns:xlink="http://www.w3.org/1999/xlink">
    <!-- Generator: Sketch 46.2 (44496) - http://www.bohemiancoding.com/sketch -->
    <title>icon copy 3</title>
    <desc>Created with Sketch.</desc>
    <defs></defs>
    <g id="Page-1" stroke="none" stroke-width="1" fill="none" fill-rule="evenodd" opacity="0.30183069">
        <g id="Reciters" transform="translate(-655.000000, -1243.000000)" fill="#FFFFFF">
            <g id="bottom-bar" transform="translate(0.000000, 1220.000000)">
                <g id="More" transform="translate(600.000000, 0.000000)">
                    <g id="icon-copy-3" transform="translate(55.000000, 23.000000)">
                        <path d="M8.57142857,25.7157143 L8.57142857,22.8571429 L40,22.8571429 L40,25.7157143 L8.57142857,25.7157143 L8.57142857,25.7157143 Z M8.57142857,11.4285714 L40,11.4285714 L40,14.2857143 L8.57142857,14.2857143 L8.57142857,11.4285714 L8.57142857,11.4285714 Z M8.57142857,-3.24851257e-13 L40,-3.24851257e-13 L40,2.85714286 L8.57142857,2.85714286 L8.57142857,-3.24851257e-13 L8.57142857,-3.24851257e-13 Z M0,22.8571429 L2.85714286,22.8571429 L2.85714286,25.7157143 L0,25.7157143 L0,22.8571429 L0,22.8571429 Z M0,11.4285714 L2.85714286,11.4285714 L2.85714286,14.2857143 L0,14.2857143 L0,11.4285714 L0,11.4285714 Z M0,-3.24851257e-13 L2.85714286,-3.24851257e-13 L2.85714286,2.85714286 L0,2.85714286 L0,-3.24851257e-13 L0,-3.24851257e-13 Z" id="Shape"></path>
                    </g>
                </g>
            </g>
        </g>
    </g>
</svg>