<?xml version="1.0" encoding="UTF-8"?>
<svg width="40px" height="36px" viewBox="0 0 40 36" version="1.1" xmlns="http://www.w3.org/2000/svg" xmlns:xlink="http://www.w3.org/1999/xlink">
    <!-- Generator: Sketch 46.2 (44496) - http://www.bohemiancoding.com/sketch -->
    <title>icon copy 2</title>
    <desc>Created with Sketch.</desc>
    <defs></defs>
    <g id="Page-1" stroke="none" stroke-width="1" fill="none" fill-rule="evenodd">
        <g id="Reciters-search" transform="translate(-355.000000, -1239.000000)" fill="#FFFFFF">
            <g id="bottom-bar" transform="translate(0.000000, 1220.000000)">
                <g id="item-3" transform="translate(300.000000, 0.000000)">
                    <g id="icon-copy-2" transform="translate(55.000000, 19.000000)">
                        <path d="M39.0995979,30.5067903 C39.0995979,30.5067903 38.5895261,30.9468522 32.3824032,31.1518811 C32.537425,30.3655205 32.516172,29.5391543 32.3724018,28.7452926 L36.1966896,28.7565442 C38.1569653,28.0701977 37.6818985,24.7272275 36.1966896,24.0658845 C35.1302897,23.5920679 30.738422,22.4244037 28.1443072,21.7543094 L27.8005088,20.6204 L27.8005088,18.9526654 C29.963313,17.2511761 31.2472436,13.7331814 31.2472436,10.5177292 C31.2472436,6.08710606 30.2058471,2.49285058 25.000115,2.49285058 C24.616311,2.49285058 24.3012667,2.55160885 23.9624691,2.5903643 C22.8985694,1.90026725 21.5221259,1.47020676 19.7843815,1.34018848 C21.0633113,0.512572086 22.7260452,0 25.000115,0 C32.1648726,0 33.7563464,4.67565756 33.7563464,10.4439688 C33.7563464,14.1532405 32.3023919,18.0512887 29.8720502,20.3778659 C32.4511629,21.0167057 37.5318774,22.3356412 38.2744818,23.0107361 C39.9259641,24.5096969 40.7510801,28.257724 39.0995979,30.5067903 L39.0995979,30.5067903 Z M23.7536897,13.5231518 C23.7536897,17.4937102 22.2547289,21.6592961 19.7631285,24.1021396 C22.3097366,24.7309781 27.5192193,26.0774174 28.2718251,26.7625138 C29.9233074,28.2614746 30.7484234,32.0082515 29.0981913,34.2573178 C29.0981913,34.2573178 28.2718251,35.0074233 15.0637176,35.0074233 C1.85435986,35.0074233 0.904226241,34.2573178 0.904226241,34.2573178 C-0.758507599,32.0082515 0.0791102004,28.2614746 1.74309422,26.7625138 C2.52070358,26.0611651 7.65392549,24.752231 10.253041,24.1221424 C7.74768868,21.6842996 6.23872646,17.506212 6.23872646,13.5231518 C6.23872646,7.43729595 7.83145046,2.50285199 14.9962081,2.50285199 C22.1622159,2.50160181 23.7536897,7.43604577 23.7536897,13.5231518 L23.7536897,13.5231518 Z M14.9974583,5.01695556 C9.79047597,5.01695556 8.74907951,8.86374656 8.74907951,13.6119143 C8.74907951,17.0548985 10.0317599,20.8229284 12.1945641,22.6456848 L12.1945641,24.3721776 L11.8907713,25.377319 C9.68171067,26.0186592 5.29484372,27.3138413 4.16093425,27.8189123 C2.6694745,28.4827557 1.53556503,31.7144602 3.7708794,32.5058215 C3.7758801,32.5058215 14.8449368,32.4795678 14.8449368,32.4795678 L26.1952831,32.5058215 C28.1555588,31.8219753 27.6804919,28.4802553 26.1952831,27.8189123 C25.1288831,27.3425953 20.7370154,26.1774315 18.1429006,25.5048369 L17.7991023,24.3721776 L17.7991023,22.6481851 C19.9619064,20.8241786 21.245837,17.0561487 21.245837,13.6119143 C21.2445868,8.86374656 20.2044405,5.01695556 14.9974583,5.01695556 L14.9974583,5.01695556 Z" id="Shape"></path>
                    </g>
                </g>
            </g>
        </g>
    </g>
</svg>