<?xml version="1.0" encoding="UTF-8"?>
<svg width="40px" height="40px" viewBox="0 0 40 40" version="1.1" xmlns="http://www.w3.org/2000/svg" xmlns:xlink="http://www.w3.org/1999/xlink">
    <!-- Generator: Sketch 46.2 (44496) - http://www.bohemiancoding.com/sketch -->
    <title>icon copy</title>
    <desc>Created with Sketch.</desc>
    <defs></defs>
    <g id="Page-1" stroke="none" stroke-width="1" fill="none" fill-rule="evenodd" fill-opacity="0.3">
        <g id="Reciters-search" transform="translate(-208.000000, -1236.000000)" fill="#FFFFFF">
            <g id="bottom-bar" transform="translate(0.000000, 1220.000000)">
                <g id="item-2" transform="translate(150.000000, 0.000000)">
                    <g id="icon-copy" transform="translate(58.000000, 16.000000)">
                        <path d="M40,23.75 L40,31.25 C40,33.32 38.32,34.99875 36.25,34.99875 L31.25,34.99875 C29.17875,34.99875 27.5,33.32 27.5,31.25 L27.5,19.99875 L27.5,16.25 L31.2425,16.25 C31.245,16.25 31.2475,16.24875 31.25,16.24875 L34.8725,16.24875 C34.2275,8.56 27.85625,2.5 20,2.5 C12.14375,2.5 5.77125,8.56 5.12625,16.24875 L8.75,16.24875 C8.7525,16.24875 8.75375,16.25 8.75625,16.25 L12.5,16.25 L12.5,23.75 L12.5,31.25 C12.5,33.32 10.82,34.99875 8.75,34.99875 L3.75,34.99875 C1.67875,34.99875 0,33.32 0,31.25 L0,23.75 L0,19.99875 L0,16.25 L2.6375,16.25 C3.29,7.18 10.76375,0 20,0 C29.23625,0 36.70875,7.18 37.36125,16.25 L40,16.25 L40,23.75 L40,23.75 Z M2.5,18.75125 L2.5,23.75 L2.5,31.25 C2.5,31.94 3.05875,32.5 3.75,32.5 L8.75,32.5 C9.44,32.5 10,31.94 10,31.25 L10,23.75 L10,18.75125 L2.5,18.75125 L2.5,18.75125 Z M37.5,18.75125 L30,18.75125 L30,23.75 L30,31.25 C30,31.94 30.55875,32.5 31.25,32.5 L36.25,32.5 C36.94,32.5 37.5,31.94 37.5,31.25 L37.5,23.75 L37.5,18.75125 L37.5,18.75125 Z M35,40 L32.5,40 L32.5,34.99875 L35,34.99875 L35,40 L35,40 Z" id="icon"></path>
                    </g>
                </g>
            </g>
        </g>
    </g>
</svg>