<?xml version="1.0" encoding="UTF-8"?>
<svg width="32px" height="32px" viewBox="0 0 32 32" version="1.1" xmlns="http://www.w3.org/2000/svg" xmlns:xlink="http://www.w3.org/1999/xlink">
    <!-- Generator: Sketch 46.2 (44496) - http://www.bohemiancoding.com/sketch -->
    <title>stop</title>
    <desc>Created with Sketch.</desc>
    <defs></defs>
    <g id="Page-1" stroke="none" stroke-width="1" fill="none" fill-rule="evenodd">
        <g id="Reciters-search" transform="translate(-686.000000, -62.000000)" fill="#FFFFFF">
            <g id="top-bar">
                <path d="M703.589236,77.9994289 L717.67136,92.0804112 C718.109927,92.5201206 718.109927,93.2316505 717.67136,93.6702179 C717.231651,94.1099274 716.520121,94.1099274 716.080411,93.6702179 L702.000571,79.5892357 L687.918447,93.6702179 C687.479879,94.1099274 686.768349,94.1099274 686.329782,93.6702179 C685.890073,93.2316505 685.890073,92.5201206 686.329782,92.0804112 L700.410764,77.9994289 L686.329782,63.9195888 C685.890073,63.4810215 685.890073,62.7683495 686.329782,62.3297821 C686.768349,61.8900726 687.479879,61.8900726 687.918447,62.3297821 L702.000571,76.4096222 L716.080411,62.3297821 C716.520121,61.8900726 717.231651,61.8900726 717.67136,62.3297821 C718.109927,62.7683495 718.109927,63.4810215 717.67136,63.9195888 L703.589236,77.9994289 L703.589236,77.9994289 Z" id="stop"></path>
            </g>
        </g>
    </g>
</svg>